<?xml version="1.0" standalone="no"?><!DOCTYPE svg PUBLIC "-//W3C//DTD SVG 1.1//EN" "http://www.w3.org/Graphics/SVG/1.1/DTD/svg11.dtd"><svg class="icon" width="32px" height="31.97px" viewBox="0 0 1025 1024" version="1.1" xmlns="http://www.w3.org/2000/svg"><path fill="#333333" d="M480.485369 672.004125c0-17.599794 14.398831-31.999625 31.998625-31.999625 17.600794 0 31.999625 14.399831 31.999625 31.999625l0 319.99625c0 17.600794-14.398831 31.999625-31.999625 31.999625-17.599794 0-31.999625-14.399831-31.999625-31.999625L480.485369 672.004125zM490.133256 649.632387c12.443854-12.444854 32.809616-12.444854 45.25347-0.001 12.443854 12.444854 12.443854 32.810616-0.001 45.25547L412.878162 817.394421c-12.443854 12.444854-32.809616 12.444854-45.25347 0.001-12.443854-12.444854-12.443854-32.810616 0-45.25547L490.133256 649.632387zM489.624262 694.885857c-12.444854-12.443854-12.444854-32.808616 0-45.25347l0 0c12.444854-12.444854 32.810616-12.443854 45.25447 0.001L657.385296 772.140951c12.444854 12.444854 12.444854 32.809616 0.001 45.25447-12.444854 12.444854-32.809616 12.443854-45.25447 0L489.624262 694.885857zM826.91031 326.82917c-26.958684-149.445249-157.686152-262.81692-314.89531-262.81692-157.212158 0-287.939626 113.374671-314.89631 262.82292C84.140014 353.448858 0.042999 454.900669 0.042999 576.00525c0 141.377343 114.602657 255.985 255.976 255.997 17.672793 0 31.999625-14.326832 31.999625-31.999625s-14.326832-31.999625-31.999625-31.999625c-51.276399-0.006-99.482834-19.976766-135.741409-56.234341C84.013015 675.505084 64.04225 627.290649 64.04225 576.00525c0-22.249739 3.754956-44.021484 11.161869-64.712242 7.159916-20.000766 17.568794-38.595548 30.938637-55.268352 26.782686-33.397609 64.304246-57.15633 105.650762-66.896216l40.856521-9.624887 7.450913-41.308516c10.502877-58.228318 41.365515-111.468694 86.903982-149.911243 22.610735-19.088776 48.055437-33.977602 75.624114-44.251481 28.523666-10.629875 58.597313-16.020812 89.385953-16.020812 30.787639 0 60.861287 5.389937 89.384953 16.020812 27.568677 10.27388 53.012379 25.162705 75.624114 44.250481 45.536466 38.44255 76.400105 91.680926 86.903982 149.909243l7.451913 41.312516 40.861521 9.621887c41.351515 9.736886 78.876076 33.493607 105.662762 66.894216 13.370843 16.672805 23.781721 35.268587 30.941637 55.270352 7.406913 20.691758 11.162869 42.466502 11.162869 64.717242 0 51.281399-19.969766 99.494834-56.228341 135.757409-36.260575 36.262575-84.47101 56.235341-135.746409 56.240341l-0.021 0c-17.672793 0-31.999625 14.326832-31.999625 31.999625s14.326832 31.999625 31.999625 31.999625l0.021 0c141.373343-0.013 255.975-114.620657 255.975-255.997C1024.008 454.892669 939.899986 353.434858 826.91031 326.82917z" /></svg>