<?xml version="1.0" standalone="no"?><!DOCTYPE svg PUBLIC "-//W3C//DTD SVG 1.1//EN" "http://www.w3.org/Graphics/SVG/1.1/DTD/svg11.dtd"><svg t="1558188767398" class="icon" style="" viewBox="0 0 1024 1024" version="1.1" xmlns="http://www.w3.org/2000/svg" p-id="15742" xmlns:xlink="http://www.w3.org/1999/xlink" width="200" height="200"><defs><style type="text/css"></style></defs><path d="M512.452311 614.4a204.8 204.8 0 0 1-204.8-204.8V204.8a204.8 204.8 0 0 1 204.8-204.8 204.8 204.8 0 0 1 204.8 204.8v204.8a204.8 204.8 0 0 1-204.8 204.8z" p-id="15743" fill="#707070"></path><path d="M892.868311 518.90176a50.9952 50.9952 0 0 0-69.9392 18.65728 358.54336 358.54336 0 0 1-620.89216 0.14336 51.2 51.2 0 1 0-88.59648 51.2c73.54368 126.976 203.79648 210.51392 347.79136 226.77504V921.6H307.652311a51.2 51.2 0 0 0 0 102.4h409.6a51.2 51.2 0 0 0 0-102.4h-153.6v-105.82016c144.03584-16.26112 274.432-99.77856 347.89376-226.9184a51.2 51.2 0 0 0-18.67776-69.95968z" p-id="15744" fill="#707070"></path></svg>